{"title":"The Hunger 2012 TS XviD - iLLUSiON","uid":7230298,"size":1506649981,"categoryP":"video","categoryS":"movies","magnet":"?xt=urn:btih:db6e3c426ab772fff3833da4b5c7b667a0ec0c5b&amp;dn=The+Hunger+2012+TS+XviD+-+iLLUSiON&amp;tr=udp%3A%2F%2Ftracker.openbittorrent.com%3A80&amp;tr=udp%3A%2F%2Fopen.demonii.com%3A1337&amp;tr=udp%3A%2F%2Ftracker.coppersurfer.tk%3A6969&amp;tr=udp%3A%2F%2Fexodus.desync.com%3A6969","seeders":0,"leechers":0,"uploader":"hiest","files":-1,"time":1335813334,"description":"Full Credits To:\n#### ##       ##       ##     ##  ######  ####  #######  ##    ## \n ##  ##       ##       ##     ## ##    ##  ##  ##     ## ###   ## \n ##  ##       ##       ##     ## ##        ##  ##     ## ####  ## \n ##  ##       ##       ##     ##  ######   ##  ##     ## ## ## ## \n ##  ##       ##       ##     ##       ##  ##  ##     ## ##  #### \n ##  ##       ##       ##     ## ##    ##  ##  ##     ## ##   ### \n#### ######## ########  #######   ######  ####  #######  ##    ## \n\n\nMovie Info\nPlot: Set in a future where the Capitol selects a boy and girl from the twelve\ndistricts to fight to the death on live television, Katniss Everdeen volunteers to take her younger sister's place for the latest match.\nIMDB:  &lt;a href=&quot;\nhttp://www.imdb.com/title/tt1392170&quot; rel=&quot;nofollow&quot; target=&quot;_NEW&quot;&gt;\nhttp://www.imdb.com/title/tt1392170&lt;/a&gt;\nIMDB Rating: 7.9\nTrailer:\n\n\n\nGeneral Info\nSize: 1.38GB\nFormat: AVI\nRuntime: 2:12:50\n\n\n\nSources\nVideo - Az.ehezok.viadala.2012.CAM.SUBBED.XviD-BEOWULF\nAudio - The.Hunger.Games.2012.TS.XViD.AC3-ADTRG\n(thanks to both)\n\n\n\nVideo Info\nID : 0\nFormat : MPEG-4 Visual\nFormat profile : Advanced Simple@L5\nFormat settings, BVOP : 2\nFormat settings, QPel : No\nFormat settings, GMC : No warppoints\nFormat settings, Matrix : Default (H.263)\nMuxing mode : Packed bitstream\nCodec ID : XVID\nCodec ID/Hint : XviD\nDuration : 2h 12mn\nBit rate : 1 355 Kbps\nWidth : 640 pixels\nHeight : 272 pixels\nDisplay aspect ratio : 2.35:1\nFrame rate : 25.000 fps\nColor space : YUV\nChroma subsampling : 4:2:0\nBit depth : 8 bits\nScan type : Progressive\nCompression mode : Lossy\nBits/(Pixel*Frame) : 0.311\nStream size : 1.26 GiB (91%)\nWriting library : XviD 64\n\n\nAudio Info\nID : 1\nFormat : MPEG Audio\nFormat version : Version 1\nFormat profile : Layer 3\nMode : Joint stereo\nMode extension : MS Stereo\nCodec ID : 55\nCodec ID/Hint : MP3\nDuration : 2h 12mn\nBit rate mode : Constant\nBit rate : 128 Kbps\nChannel(s) : 2 channels\nSampling rate : 44.1 KHz\nCompression mode : Lossy\nStream size : 122 MiB (9%)\nAlignment : Split accross interleaves\nInterleave, duration : 40 ms (1.00 video frame)\nInterleave, preload duration : 500 ms\n\n\n\n\nEncoders Notes\nI de-noised, changed the brightness,\ngamma, contrast saturation &amp; colors. then sharpened a little.\nThen i synced it to the line audio. Overal a nice TS.\nIt has harcoded hungrian subs threwout.\nSample included, enjoy\n\n\n\nI am looking for:\nLots of things\nillusion [at] hushai\n\n\n\nScreenz:\n &lt;a href=&quot;\nhttp://imgr.us/images/f466vzwfws2vl3vvk1.jpg&quot; rel=&quot;nofollow&quot; target=&quot;_NEW&quot;&gt;\nhttp://imgr.us/images/f466vzwfws2vl3vvk1.jpg&lt;/a&gt;\n &lt;a href=&quot;\nhttp://imgr.us/images/6fufga0fbesvszxe9jkb.jpg&quot; rel=&quot;nofollow&quot; target=&quot;_NEW&quot;&gt;\nhttp://imgr.us/images/6fufga0fbesvszxe9jkb.jpg&lt;/a&gt;\n &lt;a href=&quot;\nhttp://imgr.us/images/p7epw03k8s2wyqzsdvy.jpg&quot; rel=&quot;nofollow&quot; target=&quot;_NEW&quot;&gt;\nhttp://imgr.us/images/p7epw03k8s2wyqzsdvy.jpg&lt;/a&gt;\n &lt;a href=&quot;\nhttp://imgr.us/images/exs25qj5w0nnaulkhqr0.jpg&quot; rel=&quot;nofollow&quot; target=&quot;_NEW&quot;&gt;\nhttp://imgr.us/images/exs25qj5w0nnaulkhqr0.jpg&lt;/a&gt;\n &lt;a href=&quot;\nhttp://imgr.us/images/47sblyjq9f6zbs384rm.jpg&quot; rel=&quot;nofollow&quot; target=&quot;_NEW&quot;&gt;\nhttp://imgr.us/images/47sblyjq9f6zbs384rm.jpg&lt;/a&gt;\n &lt;a href=&quot;\nhttp://imgr.us/images/gc8mlgird1m3quvz0m3.jpg&quot; rel=&quot;nofollow&quot; target=&quot;_NEW&quot;&gt;\nhttp://imgr.us/images/gc8mlgird1m3quvz0m3.jpg&lt;/a&gt;\n\n\nFull Credits To:\n#### ##       ##       ##     ##  ######  ####  #######  ##    ## \n ##  ##       ##       ##     ## ##    ##  ##  ##     ## ###   ## \n ##  ##       ##       ##     ## ##        ##  ##     ## ####  ## \n ##  ##       ##       ##     ##  ######   ##  ##     ## ## ## ## \n ##  ##       ##       ##     ##       ##  ##  ##     ## ##  #### \n ##  ##       ##       ##     ## ##    ##  ##  ##     ## ##   ### \n#### ######## ########  #######   ######  ####  #######  ##    ## ","torrent":{"xt":"urn:btih:db6e3c426ab772fff3833da4b5c7b667a0ec0c5b","amp;dn":"The+Hunger+2012+TS+XviD+-+iLLUSiON","amp;tr":["udp%3A%2F%2Ftracker.openbittorrent.com%3A80","udp%3A%2F%2Fopen.demonii.com%3A1337","udp%3A%2F%2Ftracker.coppersurfer.tk%3A6969","udp%3A%2F%2Fexodus.desync.com%3A6969"],"infoHash":"db6e3c426ab772fff3833da4b5c7b667a0ec0c5b","infoHashBuffer":{"type":"Buffer","data":[219,110,60,66,106,183,114,255,243,131,61,164,181,199,182,103,160,236,12,91]},"announce":[],"urlList":[]}}